<?xml version="1.0" encoding="utf-8"?>
<!-- Generator: Adobe Illustrator 23.0.5, SVG Export Plug-In . SVG Version: 6.00 Build 0)  -->
<svg version="1.1" id="Layer_1" xmlns="http://www.w3.org/2000/svg" xmlns:xlink="http://www.w3.org/1999/xlink" x="0px" y="0px"
	 viewBox="0 0 1125 2000" style="enable-background:new 0 0 1125 2000;" xml:space="preserve">
<style type="text/css">
	.st0{fill:#FFFFFF;stroke:#CF1F39;stroke-miterlimit:10;}
	.st1{fill:#FFFFFF;}
</style>
<g>
	<path class="st0" d="M154.3,842.5"/>
	<path class="st1" d="M40,822.1c-0.6-1.7,1.8-2.9,2.7-1.4c9.4,14.6,18.5,29.3,27.8,44c11.4,18.5,22.8,37,34.1,55.5c0,0,0,0.1,0,0.1
		L81,924.5c0,0-0.1,0-0.1-0.1c1.3-43.7,3.3-87.4,5.4-131l3.5-65.4l4-64.3c0.9-14.2,11.3-26.6,25.4-28.4c14.9-1.9,27.6,7.2,31.8,19.9
		l0.9,2.9l28.6,87.6l27.8,87.8l27.1,88l18.3,61c4.1,13.6-6,27.4-20.2,27.7l-20.8,0.4c-16.5,0.3-29-14.9-25.5-31.1
		c6.7-30.8,13.7-61.5,20.4-92.3l28.3-123.7l29.4-123.4l15.2-61.6l1-4.2c1.9-8.2,7.1-17.7,14.9-24.2c7.7-6.6,17.1-10.1,26.1-10.9
		c9.1-0.8,18.5,1.1,27.1,6.1c8.6,4.9,15.8,13.4,19.3,21.8c0.8,1.9,1.7,4.5,2.1,5.9l0.1,0.5l0.3,1l0.5,1.9l4,15.3l7.9,30.7
		c20.9,82,41.4,164.1,60.5,246.6c19.2,82.4,37.7,165.1,54.9,248.1c0,0,0,0.1-0.1,0.1l-42.2,0.1c0,0-0.1,0-0.1-0.1
		c13.8-40.3,27.7-80.6,42.3-120.8c7.2-20.1,14.6-40.2,22.1-60.2l0,0c2.9-7.6,14.3-4.6,13.1,3.5l0,0c-3.6,21.1-7.2,42.1-11.1,63.1
		c-7.5,41.8-15.6,83.5-23.8,125.1c-1.9,9.5-9.6,17.3-19.3,18c-10.7,0.8-19.2-5.7-22.2-14.4l-1-2.8c-27.8-80.1-54.3-160.5-80.1-241.2
		c-25.8-80.6-50.3-161.6-71.1-231.4l-8.9-30.4l-7.7-26.6l-0.6-1.9l-0.3-1l-0.1-0.5c0.3,1.2,1,3.4,1.7,5c2.9,7.2,9.2,14.7,16.7,18.9
		c7.5,4.3,15.5,5.9,23.3,5.2c7.7-0.6,15.8-3.7,22.5-9.4c6.8-5.7,11.3-14,12.9-20.9l-0.8,3.5l-13.7,62l-28.4,123.7l-29.5,123.4
		c-10.2,41-20.1,82.2-30.7,123.1l-0.1,0.5c-5.1,19.7-23.2,34-43.6,32.5c-19.2-1.4-33.5-14.9-37.8-31.5l-22.6-89.2l-21.9-89.4
		l-21.2-89.6L94.7,674c0,0,0-0.1,0.1-0.1l57.9-4.5c0,0,0.1,0,0.1,0.1L141.9,734l-11.4,64.5c-7.9,43-15.9,86-24.5,128.9l-0.3,1.6
		c-1,4.8-4.4,8.9-9.2,9.9c-6.6,1.4-12.2-2.3-14.3-7.4c-8.1-20.2-16-40.4-23.8-60.7C52.3,854.5,46,838.4,40,822.1z"/>
	<path class="st1" d="M546.1,882.9l4.2,1.5c11.4,3.9,14.6,18.5,5.9,26.9l-7.1,6.8c-8.3,8-22.2,2.4-22.7-9.1l-0.5-11
		C525.5,887.2,536,879.4,546.1,882.9z"/>
</g>
<g>
	<path class="st1" d="M592.7,791.1h26c11,0,20.8,7,24.4,17.4l26,75.4l24.4-71.7c4.3-12.6,16.1-21.1,29.5-21.1h19.5V921h-28.2v-96
		h-0.6l-32.8,96h-25l-33.8-96h-0.8v96h-28.6V791.1z"/>
	<path class="st1" d="M770.2,789.1h29.2l0,0c0,13-10.6,23.6-23.6,23.6h-5.6V789.1z M799.4,824.1L799.4,824.1l0,96.8h-29.2v-67.6
		C770.2,837.2,783.3,824.1,799.4,824.1z"/>
	<path class="st1" d="M805.4,964.6v-19c0.5,0.1,1.7,0.2,3.6,0.2c5.1,0,8.7-0.4,11-1.1c2.3-0.7,3.8-2.2,4.6-4.5
		c0.8-2.3,1.2-6,1.2-11.2v-78.5c0-14.5,11.8-26.3,26.3-26.3h2.9v111.5c0,11.1-3.2,18.7-9.7,23c-6.5,4.3-16.6,6.4-30.5,6.4
		L805.4,964.6z M825.8,789.1H855l0,0c0,13-10.6,23.6-23.6,23.6h-5.6V789.1z"/>
	<path class="st1" d="M881.4,789.1h29.2l0,0c0,13-10.6,23.6-23.6,23.6h-5.6V789.1z M909.3,824.1h1.4V921h-29.2v-69
		C881.4,836.6,893.9,824.1,909.3,824.1z"/>
	<path class="st1" d="M937.1,824.1h17c6.5,0,11.8,5.3,11.8,11.8l0,0c2.3-9.2,12.6-13.8,31-13.8c12.4,0,21.1,2.2,26.1,6.7
		c5,4.5,7.5,11.5,7.5,21.1v71h-29.2v-67.2c0-3.7-0.4-6.5-1.1-8.4c-0.7-1.9-2.2-3.2-4.4-4c-2.2-0.8-5.6-1.2-10.1-1.2
		c-5.7,0-9.9,0.4-12.6,1.1c-2.7,0.7-4.5,2-5.4,3.9c-0.9,1.9-1.4,4.7-1.4,8.6V921h-29.2V824.1z"/>
	<path class="st1" d="M1056.9,789.1h29.2l0,0c0,13-10.6,23.6-23.6,23.6h-5.6V789.1z M1081.9,824.1h4.2V921h-29.2v-71.8
		C1056.9,835.3,1068.1,824.1,1081.9,824.1z"/>
</g>
<g>
	<g>
		<path class="st1" d="M607.2,970.6h-17.7c-4.4,0-7.9-3.6-7.9-7.9l0,0h62.7l0,0c0,4.4-3.6,7.9-7.9,7.9h-17.6v67.8h-11.4V970.6z"/>
		<path class="st1" d="M654,1022.3v-22.3c0-6.8,2-11.8,5.9-14.8c3.9-3,10.3-4.5,19.1-4.5c8.3,0,14.3,1.4,18,4.3
			c3.7,2.9,5.5,7.9,5.5,14.9v12.5h-37.9v8.5c0,3.9,1.4,6.7,4.1,8.4c2.7,1.7,6.9,2.6,12.6,2.6c5.4,0,11.7-0.9,19-2.8v8.1
			c-7.2,1.6-14,2.3-20.4,2.3C662.6,1039.6,654,1033.9,654,1022.3z M692,1005.7v-8.9c0-3.4-1-5.8-3.1-7.1s-5.6-1.9-10.6-1.9
			c-4.8,0-8.3,0.6-10.5,1.9c-2.2,1.3-3.3,3.6-3.3,7.1v8.9H692z"/>
		<path class="st1" d="M732.8,1039.4c-1.8-0.2-3.8-0.5-6-1.2c-2.4-0.6-4.3-1.6-5.6-2.8c-1.3-1.2-2.5-3.1-3.4-5.5
			c-0.9-2.3-1.4-5.3-1.4-8.8v-20.8c0-6.3,1.2-10.8,3.6-13.5c1.3-1.6,2.7-2.7,4-3.6c1.4-0.8,3.1-1.4,5.3-1.7c2.2-0.3,4.1-0.5,5.8-0.6
			c1.7-0.1,4.1-0.2,7.2-0.2c5.4,0,10.7,0.6,16.1,1.8v7.7c-6.2-1.6-12-2.3-17.4-2.3c-4,0-7,0.3-8.9,0.9c-1.9,0.6-3.2,1.6-4,3.2
			c-0.7,1.5-1.1,3.8-1.1,6.9v23.1c0,2.9,0.4,5,1.2,6.4c0.8,1.4,2.3,2.4,4.4,3c2.1,0.6,5.3,0.9,9.5,0.9c5.7,0,11.4-0.7,17-2.2v7.9
			c-5.3,1.1-11.3,1.6-18.1,1.6C737.4,1039.6,734.6,1039.5,732.8,1039.4z"/>
		<path class="st1" d="M772.7,956.8L772.7,956.8c5.8,0,10.5,4.7,10.5,10.5v21.6c1.1-5.4,7.3-8.1,18.6-8.1c7.2,0,12.3,1.3,15.2,3.9
			c2.9,2.6,4.4,6.7,4.4,12.3v41.4h-10.5v-40.7c0-1.5-0.1-2.7-0.4-3.6s-0.7-1.9-1.4-2.8c-1.6-1.9-5-2.9-10.4-2.9
			c-4.3,0-7.5,0.3-9.7,0.9c-2.2,0.6-3.7,1.5-4.6,2.9c-0.8,1.3-1.2,3.2-1.2,5.6v40.7h-10.5V956.8z"/>
	</g>
</g>
</svg>
