<?xml version="1.0" encoding="utf-8"?>
<!-- Generator: Adobe Illustrator 23.0.5, SVG Export Plug-In . SVG Version: 6.00 Build 0)  -->
<svg version="1.1" id="Layer_1" xmlns="http://www.w3.org/2000/svg" xmlns:xlink="http://www.w3.org/1999/xlink" x="0px" y="0px"
	 viewBox="0 0 590 590" style="enable-background:new 0 0 590 590;" xml:space="preserve">
<style type="text/css">
	.st0{fill:url(#SVGID_1_);stroke:#CF1F39;stroke-miterlimit:10;}
	.st1{fill:url(#SVGID_2_);}
	.st2{fill:url(#SVGID_3_);}
</style>
<g>
	<linearGradient id="SVGID_1_" gradientUnits="userSpaceOnUse" x1="154.2546" y1="297" x2="154.2546" y2="297">
		<stop  offset="5.025331e-03" style="stop-color:#E42E28"/>
		<stop  offset="0.4486" style="stop-color:#E22D28"/>
		<stop  offset="0.6565" style="stop-color:#DA2B27"/>
		<stop  offset="0.8154" style="stop-color:#CE2827"/>
		<stop  offset="0.9485" style="stop-color:#BB2326"/>
		<stop  offset="1" style="stop-color:#B22025"/>
	</linearGradient>
	<path class="st0" d="M154.3,297"/>
	<linearGradient id="SVGID_2_" gradientUnits="userSpaceOnUse" x1="43.77" y1="297" x2="521.1746" y2="297">
		<stop  offset="5.025331e-03" style="stop-color:#E42E28"/>
		<stop  offset="0.4486" style="stop-color:#E22D28"/>
		<stop  offset="0.6565" style="stop-color:#DA2B27"/>
		<stop  offset="0.8154" style="stop-color:#CE2827"/>
		<stop  offset="0.9485" style="stop-color:#BB2326"/>
		<stop  offset="1" style="stop-color:#B22025"/>
	</linearGradient>
	<path class="st1" d="M43.9,277.3c-0.6-1.6,1.7-2.8,2.6-1.3c9.1,14.1,17.9,28.3,26.9,42.4c11.1,17.8,22.1,35.7,32.9,53.6
		c0,0,0,0.1,0,0.1l-22.8,4c0,0-0.1,0-0.1-0.1c1.3-42.2,3.2-84.3,5.2-126.5l3.4-63.2l3.8-62.1c0.8-13.7,10.9-25.7,24.6-27.4
		c14.4-1.8,26.6,6.9,30.7,19.2l0.9,2.8l27.6,84.5l26.8,84.7l26.1,84.9l17.6,58.9c3.9,13.2-5.8,26.5-19.5,26.7l-20.1,0.4
		c-16,0.3-28-14.4-24.6-30c6.5-29.7,13.2-59.4,19.7-89.1l27.4-119.4l28.4-119.2l14.7-59.5l1-4.1c1.8-7.9,6.8-17.1,14.4-23.4
		c7.5-6.4,16.5-9.8,25.2-10.5c8.8-0.7,17.8,1.1,26.2,5.9c8.3,4.7,15.3,12.9,18.6,21c0.8,1.8,1.6,4.3,2,5.7l0.1,0.5l0.2,0.9l0.5,1.9
		l3.9,14.8l7.6,29.7c20.2,79.2,39.9,158.4,58.5,238c18.6,79.6,36.4,159.3,53,239.5c0,0,0,0.1-0.1,0.1l-40.7,0.1c0,0-0.1,0-0.1-0.1
		c13.3-38.9,26.8-77.9,40.8-116.6c6.9-19.4,14.1-38.8,21.3-58.1l0,0c2.8-7.3,13.8-4.4,12.6,3.4v0c-3.5,20.3-7,40.7-10.7,61
		c-7.2,40.4-15,80.6-23,120.8c-1.8,9.2-9.3,16.7-18.7,17.4c-10.3,0.7-18.5-5.5-21.5-13.9l-0.9-2.7c-26.9-77.3-52.4-155-77.3-232.8
		c-24.9-77.9-48.6-156-68.6-223.4l-8.6-29.4l-7.5-25.7l-0.5-1.8l-0.3-0.9l-0.1-0.5c0.3,1.1,1,3.3,1.7,4.8c2.8,7,8.9,14.2,16.1,18.2
		c7.2,4.2,15,5.7,22.5,5.1c7.5-0.6,15.2-3.5,21.8-9.1c6.6-5.5,10.9-13.5,12.4-20.2l-0.7,3.4l-13.2,59.8l-27.5,119.4L288,359.5
		c-9.9,39.6-19.4,79.3-29.6,118.9l-0.1,0.5c-4.9,19-22.4,32.9-42.1,31.4c-18.5-1.4-32.4-14.4-36.4-30.4l-21.8-86.1l-21.1-86.3
		l-20.4-86.5l-19.7-86.6c0,0,0-0.1,0.1-0.1l55.9-4.3c0,0,0.1,0,0.1,0.1l-10.5,62.3l-11,62.3c-7.6,41.5-15.4,83-23.7,124.4l-0.3,1.6
		c-0.9,4.6-4.3,8.6-8.9,9.6c-6.4,1.4-11.7-2.2-13.8-7.1c-7.8-19.5-15.4-39-23-58.6C55.7,308.6,49.7,293,43.9,277.3z"/>
	<linearGradient id="SVGID_3_" gradientUnits="userSpaceOnUse" x1="513.0004" y1="354.3659" x2="547.0319" y2="354.3659">
		<stop  offset="5.025331e-03" style="stop-color:#E42E28"/>
		<stop  offset="0.4486" style="stop-color:#E22D28"/>
		<stop  offset="0.6565" style="stop-color:#DA2B27"/>
		<stop  offset="0.8154" style="stop-color:#CE2827"/>
		<stop  offset="0.9485" style="stop-color:#BB2326"/>
		<stop  offset="1" style="stop-color:#B22025"/>
	</linearGradient>
	<path class="st2" d="M532.5,336l4.1,1.4c11,3.8,14.1,17.9,5.7,25.9l-6.9,6.6c-8,7.7-21.4,2.3-21.9-8.8l-0.5-10.6
		C512.6,340.1,522.7,332.6,532.5,336z"/>
</g>
</svg>
