<svg id="Layer_1" data-name="Layer 1" xmlns="http://www.w3.org/2000/svg" viewBox="0 0 1000 1000"><title>Artboard 2</title><path d="M546.3,349.62q-5,21.57-10.1,43.14c-7.82,33.12-15.55,66.27-23.52,99.35Q489.22,589.53,465.5,686.9,453,738,439.94,788.91c-7.07,27.35-30.58,48.23-60.16,48.64-27.92.39-53.89-17.12-61.58-46.52-12.37-47.27-24.21-94.69-36-142.11-12.43-50-24.57-100.08-36.79-150.15-2.39-9.81-4.48-19.69-6.81-29.52-.55-2.32-1.51-4.54-2.29-6.81h-1.6c-1.56,7.7-3.21,15.37-4.68,23.08q-9.74,51-19.39,102c-2.7,14.17-5.53,28.31-8.17,42.49-1.82,9.78-7.95,16.79-15.78,17.71-9,1.05-16.17-3.25-20.08-13.15Q145.79,581.91,125.43,529c-7.08-18.31-13.89-36.73-20.79-55.11-.69-1.83-1.18-3.73-1.76-5.6l2.2-1.22,60.49,95.56,1.48-.58a20.88,20.88,0,0,0,.69-3.36q.67-14.55,1.25-29.1c1.31-32.85,2.48-65.71,3.94-98.55,1.07-23.93,2.45-47.84,3.79-71.76q2.35-41.76,4.89-83.5c1.09-17.5,2.29-35,3.71-52.48,1.55-19,19-36.45,38.68-38.91,19.15-2.4,39.58,9.52,45.8,27.86,12.66,37.35,24.85,74.86,37,112.37,9.76,30,19.28,60.15,28.78,90.28,10.07,31.9,20,63.84,30,95.76.66,2.11,1.55,4.14,2.34,6.21l1.8.24c1.39-5.09,3-10.15,4.15-15.29,13.12-56.63,26-113.34,39.32-169.92,15.77-66.78,32-133.45,48-200.16,3.38-14,6.61-28.11,10.39-42,8.63-31.76,36.74-53.13,68.52-52.47,32.69.67,59.48,22.57,67.53,54.69,12.1,48.24,24.65,96.36,36.69,144.61,18.93,75.89,38,151.75,56.25,227.81,17.6,73.42,34.37,147,51.21,220.64,8.7,38,16.76,76.18,25.11,114.28.21.92.58,1.8,2.33,3,.84-2.1,1.75-4.17,2.52-6.29q27.3-75.24,54.61-150.48c3-8.22,8.27-10.63,14.64-7.11,4.32,2.39,5.19,6.21,4.46,10.62-2.69,16.3-5.28,32.61-8.22,48.86-8.48,46.92-16.95,93.85-25.73,140.72q-9,48.38-18.93,96.59c-3.34,16.39-15.14,26.79-30.13,27.53-15.48.78-27.61-8.31-33.12-24.56-20.44-60.24-41.52-120.26-61.27-180.72-31.61-96.76-62.48-193.77-93.4-290.76-11.91-37.36-23.08-75-34.61-112.45-.52-1.69-1.36-3.27-2-4.9Z"/><path d="M844,588.15c.14-15.09,8.74-26.3,21.54-26,17.19.35,29.81,8.37,31.53,25a13.39,13.39,0,0,1-.82,5.43c-4.43,13.4-14,22.63-26.56,27.44-11.48,4.42-23.5-5.3-24.38-17.67C845,597.55,844.44,592.86,844,588.15Z"/></svg>