<svg id="Layer_1" data-name="Layer 1" xmlns="http://www.w3.org/2000/svg" xmlns:xlink="http://www.w3.org/1999/xlink" viewBox="0 0 1000 1000"><defs><style>.cls-1{fill:url(#linear-gradient);}.cls-2{fill:url(#linear-gradient-2);}</style><linearGradient id="linear-gradient" x1="76.37" y1="45.31" x2="854.13" y2="839.56" gradientUnits="userSpaceOnUse"><stop offset="0.11" stop-color="#ed1c24"/><stop offset="1" stop-color="#be1e2d"/></linearGradient><linearGradient id="linear-gradient-2" x1="844" y1="591.56" x2="897.12" y2="591.56" gradientUnits="userSpaceOnUse"><stop offset="0" stop-color="#ed1c24"/><stop offset="1" stop-color="#be1e2d"/></linearGradient></defs><title>Artboard 1</title><path class="cls-1" d="M546.3,349.62l1.74-.28c.68,1.63,1.52,3.21,2,4.9,11.53,37.48,22.7,75.09,34.61,112.45,30.92,97,61.79,194,93.4,290.76,19.75,60.46,40.83,120.48,61.27,180.72,5.51,16.25,17.64,25.34,33.12,24.56,15-.74,26.79-11.14,30.13-27.53q9.81-48.23,18.93-96.59c8.78-46.87,17.25-93.8,25.73-140.72,2.94-16.25,5.53-32.56,8.22-48.86.73-4.41-.14-8.23-4.46-10.62-6.37-3.52-11.65-1.11-14.64,7.11Q809,720.74,781.78,796c-.77,2.12-1.68,4.19-2.52,6.29-1.75-1.22-2.12-2.1-2.33-3C768.58,761.17,760.52,723,751.82,685c-16.84-73.6-33.61-147.22-51.21-220.64-18.24-76.06-37.32-151.92-56.25-227.81-12-48.25-24.59-96.37-36.69-144.61-8-32.12-34.84-54-67.53-54.69-31.78-.66-59.89,20.71-68.52,52.47-3.78,13.93-7,28-10.39,42-16,66.71-32.24,133.38-48,200.16C399.86,388.49,387,445.2,373.9,501.83c-1.19,5.14-2.76,10.2-4.15,15.29l-1.8-.24c-.79-2.07-1.68-4.1-2.34-6.21-10-31.92-19.93-63.86-30-95.76-9.5-30.13-19-60.24-28.78-90.28-12.18-37.51-24.37-75-37-112.37C263.58,193.92,243.15,182,224,184.4c-19.64,2.46-37.13,19.88-38.68,38.91-1.42,17.48-2.62,35-3.71,52.48q-2.58,41.74-4.89,83.5c-1.34,23.92-2.72,47.83-3.79,71.76-1.46,32.84-2.63,65.7-3.94,98.55q-.59,14.55-1.25,29.1a20.88,20.88,0,0,1-.69,3.36l-1.48.58-60.49-95.56-2.2,1.22c.58,1.87,1.07,3.77,1.76,5.6,6.9,18.38,13.71,36.8,20.79,55.11q20.43,52.86,41.18,105.61c3.91,9.9,11.08,14.2,20.08,13.15,7.83-.92,14-7.93,15.78-17.71,2.64-14.18,5.47-28.32,8.17-42.49q9.71-51,19.39-102c1.47-7.71,3.12-15.38,4.68-23.08h1.6c.78,2.27,1.74,4.49,2.29,6.81,2.33,9.83,4.42,19.71,6.81,29.52,12.22,50.07,24.36,100.15,36.79,150.15,11.79,47.42,23.63,94.84,36,142.11,7.69,29.4,33.66,46.91,61.58,46.52,29.58-.41,53.09-21.29,60.16-48.64q13.19-50.91,25.56-102,23.76-97.35,47.18-194.79c8-33.08,15.7-66.23,23.52-99.35Q541.3,371.21,546.3,349.62Z"/><path class="cls-2" d="M844,588.15c.44,4.71,1,9.4,1.31,14.12.88,12.37,12.9,22.09,24.38,17.67,12.54-4.81,22.13-14,26.56-27.44a13.39,13.39,0,0,0,.82-5.43c-1.72-16.59-14.34-24.61-31.53-25C852.74,561.85,844.14,573.06,844,588.15Z"/></svg>